<svg width="24" height="24" viewBox="0 0 24 24" fill="none" xmlns="http://www.w3.org/2000/svg">
<path d="M22.5938 12.937H22.125V9.65562C22.125 8.362 21.2167 7.27727 20.0045 7.00388L17.871 3.30837C17.5583 2.7668 17.0535 2.37936 16.4494 2.2175C16.0229 2.10326 15.5831 2.11165 15.1707 2.23615L13.6193 0.684663C12.7064 -0.228174 11.2212 -0.228268 10.3083 0.684663L4.05661 6.93675H2.71875C1.21964 6.93675 0 8.15644 0 9.65562V21.2811C0 22.7803 1.21964 24 2.71875 24H8.95312C9.21197 24 9.42188 23.7901 9.42188 23.5312C9.42188 23.2724 9.21197 23.0625 8.95312 23.0625H2.71875C1.73658 23.0625 0.9375 22.2633 0.9375 21.2811V9.65562C0.9375 8.6734 1.73658 7.87429 2.71875 7.87429H19.4062C20.3884 7.87429 21.1875 8.6734 21.1875 9.65562V12.937H17.7188C16.323 12.937 15.1875 14.0726 15.1875 15.4684C15.1875 16.8641 16.323 17.9997 17.7188 17.9997H21.1875V21.2811C21.1875 22.2633 20.3884 23.0625 19.4062 23.0625H13.1719C12.913 23.0625 12.7031 23.2724 12.7031 23.5312C12.7031 23.7901 12.913 24 13.1719 24H19.4062C20.9054 24 22.125 22.7803 22.125 21.2811V17.9997H22.5938C23.3692 17.9997 24 17.3689 24 16.5934V14.3433C24 13.5679 23.3692 12.937 22.5938 12.937ZM16.2067 3.12311C16.5689 3.22015 16.8716 3.45243 17.0591 3.77714L18.8832 6.93675H8.77936L15.1416 3.26332C15.4663 3.07591 15.8445 3.02603 16.2067 3.12311ZM10.9713 1.34765C11.2364 1.08251 11.5889 0.936486 11.9638 0.936486C12.3388 0.936486 12.6913 1.08251 12.9564 1.34765L14.2844 2.67572L6.90441 6.93675H5.38247L10.9713 1.34765ZM23.0625 16.5934C23.0625 16.8519 22.8522 17.0622 22.5938 17.0622H17.7188C16.8399 17.0622 16.125 16.3472 16.125 15.4684C16.125 14.5895 16.8399 13.8746 17.7188 13.8746H22.5938C22.8522 13.8746 23.0625 14.0848 23.0625 14.3433V16.5934Z" fill="white"/>
</svg>
