<svg width="62" height="62" viewBox="0 0 62 62" fill="none" xmlns="http://www.w3.org/2000/svg">
<path d="M41.7647 31.4944C42.2664 31.4944 42.6729 31.0878 42.6729 30.5862V24.0274C42.6729 23.6489 42.4381 23.3099 42.0836 23.1771L31.319 19.1404C31.1133 19.0633 30.8869 19.0633 30.6811 19.1404L19.9165 23.1771C19.562 23.3101 19.3272 23.6489 19.3272 24.0274V26.9434C19.3272 27.4449 19.7337 27.8516 20.2354 27.8516C20.7371 27.8516 21.1436 27.4449 21.1436 26.9434V25.338L30.0918 28.6935V40.6986L21.1436 37.3431V31.1918C21.1436 30.6902 20.7371 30.2836 20.2354 30.2836C19.7337 30.2836 19.3272 30.6902 19.3272 31.1918V37.9726C19.3272 38.3511 19.562 38.6901 19.9165 38.8229L30.6811 42.8596C30.6812 42.8588 30.6815 42.8579 30.6816 42.857C30.7839 42.8954 30.8914 42.9173 31.0002 42.9173C31.1076 42.9173 31.2156 42.8983 31.319 42.8594L42.0836 38.8228C42.4381 38.6898 42.6729 38.351 42.6729 37.9725V34.8194C42.6729 34.3178 42.2664 33.9112 41.7647 33.9112C41.263 33.9112 40.8565 34.3178 40.8565 34.8194V37.343L31.9083 40.6986V28.6935L40.8565 25.338V30.5862C40.8565 31.0879 41.263 31.4944 41.7647 31.4944ZM31 27.0942L22.8221 24.0275L31 20.9607L39.178 24.0275L31 27.0942Z" fill="white"/>
<path d="M30.0918 9.06508V15.5872C30.0918 16.0888 30.4983 16.4954 31 16.4954C31.5017 16.4954 31.9082 16.0888 31.9082 15.5872V9.06508C33.9989 8.64258 35.578 6.7913 35.578 4.57795C35.578 2.05363 33.5243 0 31 0C28.4757 0 26.4221 2.05363 26.4221 4.57795C26.4221 6.7913 28.0011 8.64258 30.0918 9.06508ZM31 1.81641C32.5226 1.81641 33.7615 3.0552 33.7615 4.57795C33.7615 6.1007 32.5226 7.33949 31 7.33949C29.4774 7.33949 28.2385 6.1007 28.2385 4.57795C28.2385 3.0552 29.4774 1.81641 31 1.81641Z" fill="white"/>
<path d="M48.4722 42.1818C47.0647 42.1818 45.764 42.6464 44.7148 43.4304L42.5408 41.2564C42.186 40.9017 41.6111 40.9017 41.2564 41.2564C40.9017 41.6111 40.9017 42.1862 41.2564 42.5407L43.4305 44.7147C42.6465 45.7639 42.1819 47.0648 42.1819 48.4721C42.1819 51.9407 45.0039 54.7626 48.4723 54.7626C51.9408 54.7626 54.7628 51.9407 54.7628 48.4721C54.7628 45.0035 51.9408 42.1818 48.4722 42.1818ZM48.4722 52.9463C46.0052 52.9463 43.9982 50.9392 43.9982 48.4723C43.9982 46.0053 46.0052 43.9982 48.4722 43.9982C50.9393 43.9982 52.9463 46.0053 52.9463 48.4723C52.9463 50.9392 50.9393 52.9463 48.4722 52.9463Z" fill="white"/>
<path d="M13.5278 19.8182C14.9352 19.8182 16.236 19.3536 17.2852 18.5696L19.4592 20.7436C19.6366 20.9209 19.8691 21.0096 20.1015 21.0096C20.3338 21.0096 20.5663 20.921 20.7437 20.7436C21.0984 20.3889 21.0984 19.8138 20.7437 19.4593L18.5697 17.2853C19.3537 16.2361 19.8183 14.9352 19.8183 13.5279C19.8183 10.0593 16.9964 7.23741 13.5279 7.23741C10.0594 7.23741 7.23743 10.0593 7.23743 13.5279C7.23743 16.9965 10.0592 19.8182 13.5278 19.8182ZM13.5278 9.0537C15.9948 9.0537 18.0018 11.0608 18.0018 13.5277C18.0018 15.9947 15.9948 18.0018 13.5278 18.0018C11.0607 18.0018 9.05371 15.9947 9.05371 13.5277C9.05371 11.0608 11.0607 9.0537 13.5278 9.0537Z" fill="white"/>
<path d="M31.9082 52.9349V46.4128C31.9082 45.9112 31.5017 45.5046 31 45.5046C30.4983 45.5046 30.0918 45.9112 30.0918 46.4128V52.9349C28.0011 53.3574 26.4221 55.2087 26.4221 57.4221C26.4221 59.9464 28.4757 62 31 62C33.5243 62 35.578 59.9464 35.578 57.4221C35.578 55.2087 33.9989 53.3574 31.9082 52.9349ZM31 60.1836C29.4774 60.1836 28.2385 58.9448 28.2385 57.4221C28.2385 55.8993 29.4774 54.6605 31 54.6605C32.5226 54.6605 33.7615 55.8993 33.7615 57.4221C33.7615 58.9448 32.5226 60.1836 31 60.1836Z" fill="white"/>
<path d="M57.4221 26.4221C55.2087 26.4221 53.3574 28.0011 52.935 30.0918H46.4128C45.9112 30.0918 45.5046 30.4984 45.5046 31C45.5046 31.5016 45.9112 31.9082 46.4128 31.9082H52.935C53.3574 33.9989 55.2087 35.5779 57.4221 35.5779C59.9464 35.5779 62 33.5243 62 31C62 28.4757 59.9464 26.4221 57.4221 26.4221ZM57.4221 33.7615C55.8994 33.7615 54.6605 32.5228 54.6605 31C54.6605 29.4772 55.8993 28.2385 57.4221 28.2385C58.9448 28.2385 60.1836 29.4772 60.1836 31C60.1836 32.5228 58.9448 33.7615 57.4221 33.7615Z" fill="white"/>
<path d="M9.06508 31.9082H15.5872C16.0889 31.9082 16.4954 31.5016 16.4954 31C16.4954 30.4984 16.0889 30.0918 15.5872 30.0918H9.06508C8.64258 28.0011 6.7913 26.4221 4.57795 26.4221C2.05363 26.4221 0 28.4757 0 31C0 33.5243 2.05363 35.5779 4.57795 35.5779C6.7913 35.5779 8.64258 33.9989 9.06508 31.9082ZM4.57795 33.7615C3.0552 33.7615 1.81641 32.5228 1.81641 31C1.81641 29.4772 3.0552 28.2385 4.57795 28.2385C6.1007 28.2385 7.33937 29.4772 7.33937 31C7.33937 32.5228 6.10058 33.7615 4.57795 33.7615Z" fill="white"/>
<path d="M41.8985 21.0096C42.1309 21.0096 42.3634 20.921 42.5408 20.7436L44.7148 18.5696C45.764 19.3536 47.0649 19.8182 48.4722 19.8182C51.9408 19.8182 54.7627 16.9964 54.7627 13.5278C54.7627 10.0591 51.9407 7.2373 48.4722 7.2373C45.0037 7.2373 42.1818 10.0591 42.1818 13.5278C42.1818 14.9352 42.6464 16.236 43.4304 17.2852L41.2562 19.4592C40.9016 19.8138 40.9016 20.3889 41.2562 20.7435C41.4336 20.921 41.6662 21.0096 41.8985 21.0096ZM48.4722 9.0537C50.9393 9.0537 52.9463 11.0608 52.9463 13.5278C52.9463 15.9947 50.9393 18.0018 48.4722 18.0018C46.0052 18.0018 43.9982 15.9947 43.9982 13.5278C43.9982 11.0608 46.0052 9.0537 48.4722 9.0537Z" fill="white"/>
<path d="M19.4592 41.2564L17.2852 43.4304C16.236 42.6464 14.9351 42.1818 13.5278 42.1818C10.0592 42.1818 7.2373 45.0036 7.2373 48.4723C7.2373 51.9409 10.0593 54.7627 13.5278 54.7627C16.9962 54.7627 19.8182 51.9409 19.8182 48.4723C19.8182 47.0648 19.3536 45.764 18.5696 44.7148L20.7436 42.5408C21.0983 42.1862 21.0983 41.6111 20.7436 41.2565C20.3889 40.9017 19.814 40.9017 19.4592 41.2564ZM13.5278 52.9463C11.0607 52.9463 9.05371 50.9392 9.05371 48.4723C9.05371 46.0053 11.0607 43.9982 13.5278 43.9982C15.9948 43.9982 18.0018 46.0053 18.0018 48.4723C18.0018 50.9392 15.9948 52.9463 13.5278 52.9463Z" fill="white"/>
</svg>
